<?xml version="1.0"?>
<svg width="256" height="256" xmlns="http://www.w3.org/2000/svg" xmlns:svg="http://www.w3.org/2000/svg" preserveAspectRatio="xMinYMin meet">
 <g class="layer">
  <title>Layer 1</title>
  <path d="m0,222.99c0,18.23 14.78,33.01 33.01,33.01l189.98,0c18.23,0 33.01,-14.78 33.01,-33.01l0,-189.98c0,-18.23 -14.78,-33.01 -33.01,-33.01l-189.98,0c-18.23,0 -33.01,14.78 -33.01,33.01l0,189.98z" fill="#97edaa" id="svg_1"/>
  <path d="m106.16,113.24l0,-36.26l31.91,0c3.04,0 5.97,0.26 8.79,0.77c2.82,0.5 5.32,1.41 7.49,2.71c2.17,1.3 3.91,3.11 5.21,5.42c1.3,2.32 1.96,5.29 1.96,8.9c0,6.52 -1.96,11.22 -5.87,14.12c-3.9,2.89 -8.9,4.34 -14.98,4.34l-34.51,0zm-34.08,-62.74l0,155l75.11,0c6.94,0 13.71,-0.87 20.3,-2.6c6.58,-1.74 12.44,-4.42 17.58,-8.04c5.14,-3.61 9.23,-8.28 12.26,-14c3.04,-5.72 4.56,-12.48 4.56,-20.3c0,-9.69 -2.35,-17.98 -7.05,-24.85c-4.71,-6.88 -11.83,-11.69 -21.39,-14.44c6.95,-3.33 12.2,-7.6 15.74,-12.81c3.55,-5.21 5.32,-11.72 5.32,-19.54c0,-7.23 -1.19,-13.31 -3.58,-18.23c-2.39,-4.92 -5.75,-8.87 -10.09,-11.83c-4.35,-2.97 -9.56,-5.1 -15.63,-6.41c-6.08,-1.3 -12.81,-1.95 -20.19,-1.95l-72.94,0zm34.08,128.51l0,-42.54l37.12,0c7.38,0 13.31,1.7 17.8,5.1c4.49,3.4 6.73,9.08 6.73,17.04c0,4.05 -0.69,7.38 -2.06,9.98c-1.38,2.61 -3.22,4.67 -5.54,6.19c-2.31,1.52 -4.99,2.61 -8.03,3.26c-3.04,0.65 -6.22,0.97 -9.55,0.97l-36.47,0z" fill="#1d1d1d" id="svg_2"/>
 </g>
</svg>