<?xml version="1.0"?>
<svg width="48" height="48" xmlns="http://www.w3.org/2000/svg" xmlns:svg="http://www.w3.org/2000/svg">
 <g class="layer">
  <title>Layer 1</title>
  <path d="m42,37c0,2.76 -2.24,5 -5,5l-26,0c-2.76,0 -5,-2.24 -5,-5l0,-26c0,-2.76 2.24,-5 5,-5l26,0c2.76,0 5,2.24 5,5l0,26z" fill="#1d1d1d" fill-opacity="0.01" id="svg_1" stroke="#97edaa" stroke-width="2"/>
  <path d="m30,37l0,-10.1c0,-1.69 -0.82,-2.7 -2.19,-2.7c-0.82,0 -1.42,0.46 -1.78,1.37c-0.02,0.06 -0.04,0.32 -0.03,1.11l0,10.32l-7,0l0,-19l7,0l0,1.06c1.02,-0.7 2.27,-1.06 3.74,-1.06c4.54,0 7.26,3.09 7.26,8.27l0,10.73l-7,0zm-19,0l0,-19l3.46,0c-2.01,0 -3.46,-1.47 -3.46,-3.5c0,-2.03 1.48,-3.5 3.51,-3.5c2.02,0 3.45,1.43 3.49,3.48c0,2.04 -1.48,3.52 -3.52,3.52l3.52,0l0,19l-7,0z" id="svg_2" opacity="0.05"/>
  <path d="m30.5,36.5l0,-9.6c0,-1.97 -1.03,-3.2 -2.69,-3.2c-1.3,0 -1.94,0.91 -2.24,1.68c-0.09,0.2 -0.08,0.99 -0.07,1.33l0,9.79l-6,0l0,-18l6,0l0,1.64c0.8,-0.83 2.07,-1.64 4.24,-1.64c4.23,0 6.76,2.91 6.76,7.77l0,10.23l-6,0zm-19,0l0,-18l6,0l0,18l-6,0zm2.96,-19c-1.72,0 -2.96,-1.26 -2.96,-3c0,-1.74 1.27,-3 3.01,-3c1.73,0 2.95,1.23 2.99,2.99c0,1.75 -1.27,3.01 -3.02,3.01l-0.02,0z" id="svg_3" opacity="0.07"/>
  <path d="m12,19l5,0l0,17l-5,0l0,-17zm2.48,-2l-0.02,0c-1.5,0 -2.46,-1.11 -2.46,-2.5c0,-1.42 0.99,-2.5 2.51,-2.5c1.53,0 2.46,1.08 2.49,2.5c0,1.39 -0.96,2.5 -2.52,2.5zm21.52,19l-5,0l0,-9.1c0,-2.2 -1.23,-3.7 -3.19,-3.7c-1.5,0 -2.31,1.01 -2.71,1.99c-0.14,0.35 -0.1,1.32 -0.1,1.81l0,9l-5,0l0,-17l5,0l0,2.62c0.72,-1.12 1.85,-2.62 4.74,-2.62c3.58,0 6.26,2.25 6.26,7.27l0,9.73l0,0z" fill="#ffffff" id="svg_4"/>
 </g>
</svg>